<svg width="420" height="111" viewBox="0 0 420 111" fill="none" xmlns="http://www.w3.org/2000/svg">
<rect width="420" height="111" fill="white"/>
<path d="M146.737 87V69.7321H147.929V85.9162H154.853V87H146.737ZM158.55 80.8828C158.55 82.5767 158.939 83.9013 159.718 84.8566C160.504 85.8119 161.58 86.2895 162.945 86.2895C164.326 86.2895 165.674 85.7798 166.991 84.7602V85.9403C165.714 86.8475 164.289 87.301 162.716 87.301C161.127 87.301 159.842 86.7311 158.863 85.5911C157.883 84.4512 157.394 82.8416 157.394 80.7624C157.394 78.9641 157.903 77.4509 158.923 76.2226C159.95 74.9863 161.283 74.3682 162.921 74.3682C164.454 74.3682 165.63 74.9061 166.449 75.9818C167.268 77.0575 167.677 78.5266 167.677 80.3891V80.8828H158.55ZM166.521 79.8713C166.473 78.4503 166.132 77.3465 165.498 76.5598C164.863 75.7731 163.988 75.3797 162.873 75.3797C161.717 75.3797 160.757 75.769 159.995 76.5477C159.24 77.3184 158.774 78.4263 158.598 79.8713H166.521ZM178.599 87V84.5314H178.55C178.157 85.3744 177.583 86.0487 176.829 86.5545C176.082 87.0522 175.251 87.301 174.336 87.301C173.164 87.301 172.237 86.9719 171.554 86.3136C170.872 85.6553 170.531 84.8245 170.531 83.821C170.531 81.6695 171.956 80.369 174.805 79.9194L178.599 79.3535C178.599 76.7043 177.603 75.3797 175.612 75.3797C174.256 75.3797 172.935 75.9256 171.651 77.0174V75.6807C172.108 75.3195 172.726 75.0104 173.505 74.7535C174.292 74.4966 175.03 74.3682 175.721 74.3682C176.989 74.3682 177.968 74.7615 178.659 75.5483C179.357 76.335 179.706 77.479 179.706 78.9802V87H178.599ZM175.203 80.8587C173.91 81.0433 173.003 81.3444 172.481 81.7618C171.96 82.1713 171.699 82.8416 171.699 83.7728C171.699 84.5033 171.94 85.1054 172.421 85.5791C172.911 86.0527 173.589 86.2895 174.456 86.2895C175.644 86.2895 176.632 85.852 177.419 84.977C178.205 84.0939 178.599 82.958 178.599 81.5692V80.365L175.203 80.8587ZM189.725 75.8252C189.355 75.5603 188.922 75.4279 188.424 75.4279C187.453 75.4279 186.638 75.9296 185.98 76.9331C185.321 77.9366 184.992 79.3615 184.992 81.2079V87H183.909V74.6692H184.992V77.4027H185.041C185.321 76.4635 185.767 75.7329 186.377 75.2111C186.987 74.6893 187.694 74.4284 188.497 74.4284C188.954 74.4284 189.364 74.5006 189.725 74.6451V75.8252ZM200.851 87V79.8231C200.851 76.8608 199.783 75.3797 197.648 75.3797C196.46 75.3797 195.484 75.8172 194.722 76.6922C193.959 77.5593 193.578 78.635 193.578 79.9194V87H192.47V74.6692H193.578V76.909H193.626C194.525 75.2151 195.93 74.3682 197.84 74.3682C199.173 74.3682 200.193 74.8137 200.899 75.7048C201.605 76.5879 201.959 77.8523 201.959 79.498V87H200.851ZM226.619 87L224.295 84.7361C222.682 86.4461 220.759 87.301 218.527 87.301C216.833 87.301 215.513 86.8675 214.565 86.0005C213.618 85.1255 213.145 84.0136 213.145 82.665C213.145 80.4493 214.477 78.7474 217.142 77.5593C215.842 76.058 215.192 74.6853 215.192 73.441C215.192 72.3251 215.585 71.3818 216.372 70.6112C217.167 69.8325 218.19 69.4431 219.442 69.4431C220.59 69.4431 221.494 69.7722 222.152 70.4305C222.81 71.0808 223.139 71.9117 223.139 72.9232C223.139 74.023 222.806 74.9622 222.14 75.7409C221.473 76.5116 220.426 77.2221 218.997 77.8723C220.201 79.1488 221.967 80.8908 224.295 83.0985C225.299 81.6053 225.833 79.8632 225.897 77.8723H227.053C226.997 80.0158 226.33 82.0147 225.054 83.8691C226.427 85.2178 227.522 86.2695 228.341 87.0241L226.619 87ZM218.226 77.0896C219.623 76.4715 220.594 75.8533 221.14 75.2352C221.694 74.617 221.971 73.8945 221.971 73.0677C221.971 72.2729 221.718 71.6387 221.213 71.1651C220.707 70.6914 220.081 70.4546 219.334 70.4546C218.427 70.4546 217.704 70.7476 217.167 71.3337C216.629 71.9117 216.36 72.6221 216.36 73.4651C216.36 74.4926 216.982 75.7008 218.226 77.0896ZM223.561 83.9896C220.895 81.4126 219.013 79.5301 217.913 78.342C215.513 79.3856 214.313 80.7985 214.313 82.5807C214.313 83.6644 214.694 84.5555 215.457 85.2539C216.227 85.9443 217.283 86.2895 218.624 86.2895C220.462 86.2895 222.108 85.5229 223.561 83.9896ZM238.612 87V69.7321H246.68V70.8279H239.804V77.7519H246.186V78.8357H239.804V85.9162H247.077V87H238.612ZM258.565 87V84.5314H258.516C258.123 85.3744 257.549 86.0487 256.795 86.5545C256.048 87.0522 255.217 87.301 254.302 87.301C253.13 87.301 252.203 86.9719 251.52 86.3136C250.838 85.6553 250.497 84.8245 250.497 83.821C250.497 81.6695 251.922 80.369 254.772 79.9194L258.565 79.3535C258.565 76.7043 257.569 75.3797 255.578 75.3797C254.222 75.3797 252.901 75.9256 251.617 77.0174V75.6807C252.074 75.3195 252.692 75.0104 253.471 74.7535C254.258 74.4966 254.996 74.3682 255.687 74.3682C256.955 74.3682 257.934 74.7615 258.625 75.5483C259.323 76.335 259.673 77.479 259.673 78.9802V87H258.565ZM255.169 80.8587C253.876 81.0433 252.969 81.3444 252.447 81.7618C251.926 82.1713 251.665 82.8416 251.665 83.7728C251.665 84.5033 251.906 85.1054 252.387 85.5791C252.877 86.0527 253.555 86.2895 254.422 86.2895C255.61 86.2895 256.598 85.852 257.385 84.977C258.171 84.0939 258.565 82.958 258.565 81.5692V80.365L255.169 80.8587ZM269.691 75.8252C269.321 75.5603 268.888 75.4279 268.39 75.4279C267.419 75.4279 266.604 75.9296 265.946 76.9331C265.288 77.9366 264.958 79.3615 264.958 81.2079V87H263.875V74.6692H264.958V77.4027H265.007C265.288 76.4635 265.733 75.7329 266.343 75.2111C266.953 74.6893 267.66 74.4284 268.463 74.4284C268.92 74.4284 269.33 74.5006 269.691 74.6451V75.8252ZM280.817 87V79.8231C280.817 76.8608 279.749 75.3797 277.614 75.3797C276.426 75.3797 275.45 75.8172 274.688 76.6922C273.925 77.5593 273.544 78.635 273.544 79.9194V87H272.436V74.6692H273.544V76.909H273.592C274.491 75.2151 275.896 74.3682 277.806 74.3682C279.139 74.3682 280.159 74.8137 280.865 75.7048C281.572 76.5879 281.925 77.8523 281.925 79.498V87H280.817ZM307.814 87H306.826L302.985 74.0069C302.792 73.3406 302.684 72.7987 302.66 72.3813H302.612C302.587 72.7345 302.463 73.2684 302.238 73.9828L298.144 87H297.157L292.027 69.7321H293.363L297.301 83.5681C297.478 84.1943 297.602 84.704 297.674 85.0974H297.723C297.771 84.8004 297.911 84.2906 298.144 83.5681L302.407 69.7321H303.009L306.922 83.5681C307.107 84.2103 307.232 84.7201 307.296 85.0974H307.344C307.384 84.8726 307.448 84.6157 307.537 84.3267L311.583 69.7321H312.871L307.814 87ZM316.507 71.5625C316.266 71.5625 316.054 71.4741 315.869 71.2975C315.684 71.1209 315.592 70.8961 315.592 70.6232C315.592 70.3583 315.684 70.1455 315.869 69.985C316.062 69.8164 316.274 69.7321 316.507 69.7321C316.756 69.7321 316.973 69.8124 317.157 69.9729C317.35 70.1335 317.446 70.3502 317.446 70.6232C317.446 70.8801 317.354 71.1009 317.17 71.2855C316.985 71.4701 316.764 71.5625 316.507 71.5625ZM315.965 87V74.6692H317.073V87H315.965ZM326.393 86.8314C325.815 87.1044 325.273 87.2408 324.767 87.2408C322.945 87.2408 322.034 86.149 322.034 83.9655V75.6807H319.818V74.6692H322.034V71.4661C322.211 71.4019 322.395 71.3377 322.588 71.2735C322.781 71.2173 322.965 71.157 323.142 71.0928V74.6692H326.393V75.6807H323.142V83.821C323.142 84.6719 323.274 85.2901 323.539 85.6754C323.812 86.0527 324.27 86.2414 324.912 86.2414C325.369 86.2414 325.863 86.0929 326.393 85.7958V86.8314ZM337.712 87V79.6064C337.712 78.1453 337.447 77.0776 336.917 76.4032C336.387 75.7209 335.56 75.3797 334.436 75.3797C333.377 75.3797 332.446 75.7931 331.643 76.62C330.84 77.4469 330.439 78.631 330.439 80.1723V87H329.331V68.7447H330.439V76.8849H330.487C331.458 75.2071 332.871 74.3682 334.725 74.3682C336.058 74.3682 337.074 74.7977 337.772 75.6567C338.47 76.5156 338.82 77.7479 338.82 79.3535V87H337.712ZM362.288 80.1001C362.288 84.9007 360.241 87.301 356.147 87.301C352.253 87.301 350.307 84.989 350.307 80.365V69.7321H351.487V80.1964C351.487 84.2023 353.116 86.2052 356.376 86.2052C359.531 86.2052 361.108 84.2585 361.108 80.365V69.7321H362.288V80.1001ZM366.129 86.4581V85.1215C366.546 85.4827 367.052 85.7677 367.646 85.9764C368.24 86.1852 368.754 86.2895 369.188 86.2895C371.122 86.2895 372.09 85.4988 372.09 83.9173C372.09 83.3714 371.877 82.9058 371.451 82.5205C371.026 82.1351 370.336 81.7377 369.38 81.3283C368.2 80.8145 367.369 80.2847 366.888 79.7388C366.414 79.1849 366.177 78.5146 366.177 77.7278C366.177 76.7244 366.558 75.9135 367.321 75.2954C368.092 74.6773 369.039 74.3682 370.163 74.3682C371.223 74.3682 372.13 74.5849 372.884 75.0184V76.2708C371.969 75.6767 371.022 75.3797 370.043 75.3797C369.232 75.3797 368.577 75.5924 368.08 76.0179C367.582 76.4354 367.333 76.9812 367.333 77.6556C367.333 78.2416 367.49 78.7193 367.803 79.0886C368.116 79.4498 368.806 79.8673 369.874 80.3409C371.158 80.9189 372.041 81.4568 372.523 81.9545C373.005 82.4442 373.246 83.0985 373.246 83.9173C373.246 84.8967 372.876 85.7075 372.138 86.3497C371.407 86.9839 370.396 87.301 369.103 87.301C367.915 87.301 366.924 87.0201 366.129 86.4581Z" fill="#373435"/>
<path d="M141.385 31.7099H134.214V51.6001H131.287V31.7099H124.131V29.2887H141.385V31.7099ZM141.968 43.1567C141.968 41.5324 142.284 40.0715 142.918 38.7741C143.561 37.4767 144.45 36.4756 145.584 35.7707C146.728 35.0658 148.031 34.7133 149.492 34.7133C151.749 34.7133 153.573 35.4949 154.962 37.0579C156.362 38.6209 157.061 40.6998 157.061 43.2946V43.4938C157.061 45.1079 156.75 46.5586 156.127 47.8458C155.514 49.1228 154.63 50.1188 153.476 50.8339C152.332 51.549 151.014 51.9066 149.522 51.9066C147.275 51.9066 145.451 51.1251 144.052 49.562C142.662 47.999 141.968 45.9303 141.968 43.3559V43.1567ZM144.818 43.4938C144.818 45.3327 145.242 46.8089 146.09 47.9224C146.948 49.0359 148.092 49.5927 149.522 49.5927C150.963 49.5927 152.107 49.0308 152.955 47.9071C153.803 46.7731 154.227 45.1897 154.227 43.1567C154.227 41.3383 153.792 39.8672 152.924 38.7435C152.066 37.6095 150.922 37.0426 149.492 37.0426C148.092 37.0426 146.963 37.5993 146.105 38.7128C145.247 39.8264 144.818 41.42 144.818 43.4938ZM164.018 49.1943H174.592V51.6001H161.061V29.2887H164.018V49.1943ZM184.384 51.9066C182.136 51.9066 180.308 51.171 178.898 49.7C177.488 48.2187 176.783 46.2419 176.783 43.7697V43.2487C176.783 41.6039 177.095 40.1379 177.718 38.8508C178.351 37.5533 179.23 36.542 180.354 35.8167C181.487 35.0811 182.713 34.7133 184.031 34.7133C186.187 34.7133 187.862 35.4233 189.057 36.8433C190.253 38.2633 190.85 40.2963 190.85 42.9422V44.1221H179.618C179.659 45.7566 180.134 47.0796 181.043 48.091C181.962 49.0921 183.127 49.5927 184.537 49.5927C185.538 49.5927 186.386 49.3884 187.081 48.9797C187.775 48.5711 188.383 48.0297 188.904 47.3554L190.636 48.7039C189.246 50.839 187.162 51.9066 184.384 51.9066ZM184.031 37.0426C182.887 37.0426 181.927 37.4614 181.15 38.2991C180.374 39.1266 179.894 40.2912 179.71 41.7929H188.015V41.5784C187.934 40.1379 187.545 39.0244 186.851 38.2378C186.156 37.441 185.216 37.0426 184.031 37.0426ZM204.381 51.6001C204.218 51.2732 204.085 50.6909 203.983 49.8532C202.665 51.2221 201.092 51.9066 199.263 51.9066C197.628 51.9066 196.285 51.4469 195.233 50.5274C194.191 49.5978 193.67 48.423 193.67 47.003C193.67 45.2765 194.324 43.9382 195.631 42.9882C196.949 42.0279 198.798 41.5477 201.178 41.5477H203.937V40.2452C203.937 39.2543 203.64 38.4677 203.048 37.8854C202.455 37.2928 201.582 36.9966 200.428 36.9966C199.416 36.9966 198.568 37.252 197.884 37.7628C197.199 38.2736 196.857 38.8916 196.857 39.6169H194.007C194.007 38.7895 194.298 37.9926 194.88 37.2264C195.473 36.45 196.27 35.8371 197.271 35.3876C198.282 34.9381 199.391 34.7133 200.596 34.7133C202.507 34.7133 204.003 35.1935 205.086 36.1538C206.169 37.1038 206.731 38.4166 206.772 40.092V47.7232C206.772 49.2454 206.966 50.4559 207.354 51.3549V51.6001H204.381ZM199.677 49.4395C200.566 49.4395 201.408 49.2096 202.205 48.7499C203.002 48.2902 203.579 47.6925 203.937 46.957V43.5551H201.715C198.241 43.5551 196.505 44.5716 196.505 46.6046C196.505 47.4933 196.801 48.188 197.393 48.6886C197.986 49.1892 198.747 49.4395 199.677 49.4395ZM219.23 37.5636C218.801 37.4921 218.336 37.4563 217.835 37.4563C215.976 37.4563 214.714 38.248 214.05 39.8315V51.6001H211.215V35.0198H213.974L214.02 36.9353C214.949 35.454 216.267 34.7133 217.973 34.7133C218.525 34.7133 218.944 34.7849 219.23 34.9279V37.5636ZM224.532 35.0198L224.624 37.1038C225.891 35.5102 227.545 34.7133 229.589 34.7133C233.093 34.7133 234.86 36.6901 234.891 40.6436V51.6001H232.056V40.6283C232.046 39.4331 231.77 38.5494 231.228 37.9773C230.697 37.4052 229.864 37.1192 228.731 37.1192C227.811 37.1192 227.004 37.3644 226.309 37.8547C225.615 38.3451 225.073 38.9887 224.685 39.7855V51.6001H221.85V35.0198H224.532ZM255.026 31.7099H247.855V51.6001H244.928V31.7099H237.772V29.2887H255.026V31.7099ZM255.608 43.1567C255.608 41.5324 255.925 40.0715 256.558 38.7741C257.202 37.4767 258.091 36.4756 259.225 35.7707C260.369 35.0658 261.671 34.7133 263.132 34.7133C265.39 34.7133 267.214 35.4949 268.603 37.0579C270.002 38.6209 270.702 40.6998 270.702 43.2946V43.4938C270.702 45.1079 270.391 46.5586 269.767 47.8458C269.155 49.1228 268.271 50.1188 267.116 50.8339C265.972 51.549 264.654 51.9066 263.163 51.9066C260.915 51.9066 259.092 51.1251 257.692 49.562C256.303 47.999 255.608 45.9303 255.608 43.3559V43.1567ZM258.459 43.4938C258.459 45.3327 258.883 46.8089 259.73 47.9224C260.589 49.0359 261.733 49.5927 263.163 49.5927C264.603 49.5927 265.748 49.0308 266.595 47.9071C267.443 46.7731 267.867 45.1897 267.867 43.1567C267.867 41.3383 267.433 39.8672 266.565 38.7435C265.707 37.6095 264.563 37.0426 263.132 37.0426C261.733 37.0426 260.604 37.5993 259.746 38.7128C258.888 39.8264 258.459 41.42 258.459 43.4938ZM287.313 41.2872H277.644V49.1943H288.876V51.6001H274.702V29.2887H288.723V31.7099H277.644V38.8814H287.313V41.2872ZM302.33 51.6001C302.167 51.2732 302.034 50.6909 301.932 49.8532C300.614 51.2221 299.041 51.9066 297.212 51.9066C295.578 51.9066 294.234 51.4469 293.182 50.5274C292.14 49.5978 291.619 48.423 291.619 47.003C291.619 45.2765 292.273 43.9382 293.581 42.9882C294.898 42.0279 296.747 41.5477 299.128 41.5477H301.886V40.2452C301.886 39.2543 301.59 38.4677 300.997 37.8854C300.405 37.2928 299.531 36.9966 298.377 36.9966C297.366 36.9966 296.518 37.252 295.833 37.7628C295.149 38.2736 294.806 38.8916 294.806 39.6169H291.956C291.956 38.7895 292.247 37.9926 292.83 37.2264C293.422 36.45 294.219 35.8371 295.22 35.3876C296.232 34.9381 297.34 34.7133 298.545 34.7133C300.456 34.7133 301.952 35.1935 303.035 36.1538C304.118 37.1038 304.68 38.4166 304.721 40.092V47.7232C304.721 49.2454 304.915 50.4559 305.303 51.3549V51.6001H302.33ZM297.626 49.4395C298.515 49.4395 299.358 49.2096 300.154 48.7499C300.951 48.2902 301.528 47.6925 301.886 46.957V43.5551H299.664C296.191 43.5551 294.454 44.5716 294.454 46.6046C294.454 47.4933 294.75 48.188 295.343 48.6886C295.935 49.1892 296.696 49.4395 297.626 49.4395ZM317.179 37.5636C316.75 37.4921 316.285 37.4563 315.785 37.4563C313.925 37.4563 312.664 38.248 312 39.8315V51.6001H309.165V35.0198H311.923L311.969 36.9353C312.899 35.454 314.216 34.7133 315.923 34.7133C316.474 34.7133 316.893 34.7849 317.179 34.9279V37.5636ZM322.481 35.0198L322.573 37.1038C323.84 35.5102 325.495 34.7133 327.538 34.7133C331.042 34.7133 332.809 36.6901 332.84 40.6436V51.6001H330.005V40.6283C329.995 39.4331 329.719 38.5494 329.178 37.9773C328.646 37.4052 327.814 37.1192 326.68 37.1192C325.76 37.1192 324.953 37.3644 324.259 37.8547C323.564 38.3451 323.023 38.9887 322.634 39.7855V51.6001H319.799V35.0198H322.481ZM337.177 50.1137C337.177 49.6233 337.32 49.2147 337.606 48.8878C337.902 48.5609 338.341 48.3974 338.923 48.3974C339.506 48.3974 339.945 48.5609 340.241 48.8878C340.548 49.2147 340.701 49.6233 340.701 50.1137C340.701 50.5836 340.548 50.9769 340.241 51.2936C339.945 51.6103 339.506 51.7687 338.923 51.7687C338.341 51.7687 337.902 51.6103 337.606 51.2936C337.32 50.9769 337.177 50.5836 337.177 50.1137ZM362.246 44.5205C361.97 46.8804 361.097 48.7039 359.626 49.9911C358.165 51.2681 356.219 51.9066 353.787 51.9066C351.152 51.9066 349.037 50.9616 347.443 49.0717C345.86 47.1818 345.068 44.6533 345.068 41.4864V39.3411C345.068 37.2673 345.436 35.4438 346.172 33.8705C346.917 32.2973 347.97 31.0918 349.328 30.2541C350.687 29.4062 352.26 28.9823 354.048 28.9823C356.418 28.9823 358.318 29.6463 359.748 30.9744C361.179 32.2922 362.011 34.1208 362.246 36.4603H359.289C359.033 34.6827 358.477 33.3955 357.618 32.5987C356.77 31.8018 355.58 31.4034 354.048 31.4034C352.168 31.4034 350.692 32.0981 349.619 33.4874C348.557 34.8768 348.026 36.8536 348.026 39.4177V41.5784C348.026 43.9995 348.531 45.9252 349.543 47.3554C350.554 48.7856 351.969 49.5007 353.787 49.5007C355.422 49.5007 356.673 49.133 357.542 48.3974C358.42 47.6517 359.003 46.3594 359.289 44.5205H362.246ZM365.081 43.1567C365.081 41.5324 365.398 40.0715 366.031 38.7741C366.675 37.4767 367.564 36.4756 368.697 35.7707C369.842 35.0658 371.144 34.7133 372.605 34.7133C374.863 34.7133 376.686 35.4949 378.076 37.0579C379.475 38.6209 380.175 40.6998 380.175 43.2946V43.4938C380.175 45.1079 379.863 46.5586 379.24 47.8458C378.627 49.1228 377.744 50.1188 376.589 50.8339C375.445 51.549 374.127 51.9066 372.636 51.9066C370.388 51.9066 368.565 51.1251 367.165 49.562C365.776 47.999 365.081 45.9303 365.081 43.3559V43.1567ZM367.931 43.4938C367.931 45.3327 368.355 46.8089 369.203 47.9224C370.061 49.0359 371.205 49.5927 372.636 49.5927C374.076 49.5927 375.22 49.0308 376.068 47.9071C376.916 46.7731 377.34 45.1897 377.34 43.1567C377.34 41.3383 376.906 39.8672 376.038 38.7435C375.179 37.6095 374.035 37.0426 372.605 37.0426C371.205 37.0426 370.077 37.5993 369.218 38.7128C368.36 39.8264 367.931 41.42 367.931 43.4938ZM386.396 35.0198L386.473 36.8587C387.689 35.4285 389.328 34.7133 391.392 34.7133C393.711 34.7133 395.289 35.6021 396.127 37.3797C396.679 36.5828 397.394 35.9392 398.272 35.4489C399.161 34.9585 400.208 34.7133 401.414 34.7133C405.05 34.7133 406.9 36.639 406.961 40.4904V51.6001H404.126V40.659C404.126 39.4739 403.855 38.5903 403.314 38.0079C402.772 37.4154 401.863 37.1192 400.586 37.1192C399.534 37.1192 398.66 37.4359 397.966 38.0692C397.271 38.6924 396.868 39.5352 396.755 40.5977V51.6001H393.905V40.7356C393.905 38.3246 392.725 37.1192 390.365 37.1192C388.506 37.1192 387.234 37.9109 386.55 39.4944V51.6001H383.715V35.0198H386.396Z" fill="#373435"/>
<path fill-rule="evenodd" clip-rule="evenodd" d="M45.22 27.04C38.1244 27.8049 31.3148 30.2564 25.36 34.19C25.36 34.34 25.36 34.71 25.3 34.78L10 91.7C10 91.7 19.44 92.35 37.37 88.56C55.3 84.77 62.5 89.18 62.5 89.18C62.5 89.18 62.87 93.28 66.5 93.34C70.13 93.4 70.4 89.53 70.5 89.28C70.6 89.03 70.73 89.06 70.73 89.06C70.73 89.06 75.96 85.58 87 86.75C98.04 87.92 111 93.12 123.22 91.97C123.67 91.9 123.39 91.9 123.29 91.53L107.77 34.89L107.45 34.11C107.45 34.11 98.45 24.66 78.94 26.92L77.03 31.17C77.83 31 78.71 30.81 79.17 30.76C86.04 29.95 99.17 31.9 104.17 36.37C104.17 36.37 104.29 36.54 104.26 36.5C104.295 36.7091 104.342 36.9161 104.4 37.12L114.14 83.12C114.14 83.12 103.22 82.49 88.62 75.3C75.28 68.73 69.62 76.36 67.16 77.94C67.0162 78.052 66.8659 78.1555 66.71 78.25C66.71 78.25 66.39 78.03 66.32 77.97L66.19 77.86C58.27 71.35 51.84 71.28 38.38 78.18C24.22 85.49 18.52 82.89 18.52 82.89L28.66 36.3C28.66 36.3 37.41 31.2 46.97 30.54C47.14 30.54 47.77 30.54 48.15 30.54L50 26.73L45.19 27.04H45.22Z" fill="#F98908" stroke="#F98908" stroke-width="0.5" stroke-miterlimit="10"/>
<path fill-rule="evenodd" clip-rule="evenodd" d="M73.7002 47.5901C73.7002 47.5901 88.3802 32.2501 101.46 46.8101C101.486 46.4215 101.55 46.0363 101.65 45.6601C95.6502 40.0701 85.2002 35.1401 73.7002 47.5901V47.5901Z" fill="#373435"/>
<path fill-rule="evenodd" clip-rule="evenodd" d="M56.7098 47.5901C56.7098 47.5901 42.0398 32.2501 28.9498 46.8101C28.9288 46.4209 28.8651 46.0353 28.7598 45.6601C34.7598 40.0701 45.2098 35.1401 56.7098 47.5901V47.5901Z" fill="#373435"/>
<path fill-rule="evenodd" clip-rule="evenodd" d="M72.8799 57.4901C72.8799 57.4901 87.5499 42.1501 100.63 56.7201C100.655 56.3314 100.719 55.9462 100.82 55.5701C94.8699 49.9801 84.3799 45.0501 72.8799 57.4901V57.4901Z" fill="#373435"/>
<path fill-rule="evenodd" clip-rule="evenodd" d="M57.5298 57.4901C57.5298 57.4901 42.8598 42.1501 29.7798 56.7201C29.7548 56.3314 29.6911 55.9462 29.5898 55.5701C35.5898 49.9801 46.0298 45.0501 57.5298 57.4901V57.4901Z" fill="#373435"/>
<path fill-rule="evenodd" clip-rule="evenodd" d="M72.8799 68.0099C72.8799 68.0099 87.5499 52.6699 100.63 67.2399C100.655 66.8512 100.719 66.466 100.82 66.0899C94.8699 60.4999 84.3799 55.5699 72.8799 68.0099V68.0099Z" fill="#373435"/>
<path fill-rule="evenodd" clip-rule="evenodd" d="M57.5298 68.0099C57.5298 68.0099 42.8598 52.6699 29.7798 67.2399C29.7548 66.8512 29.6911 66.466 29.5898 66.0899C35.5898 60.4999 46.0298 55.5699 57.5298 68.0099V68.0099Z" fill="#373435"/>
<path fill-rule="evenodd" clip-rule="evenodd" d="M75.3004 18.57C75.7242 17.7349 76.1014 16.8769 76.4304 16L52.3604 16.11C52.1204 16.46 50.1104 20.64 50.0404 21.03C52.6704 21.12 56.2104 20.8 58.6204 21.5C60.5504 22.07 63.3304 24.01 63.8304 26.59H52.2604L49.8604 31.59H64.2904C64.3324 33.4334 63.8764 35.254 62.9704 36.86C62.243 38.0816 61.2088 39.0917 59.9704 39.79C58.7185 40.4973 57.3445 40.9621 55.9203 41.16C54.3025 41.3351 52.6714 41.3519 51.0504 41.21C51.0504 42.15 51.0504 43.34 51.0504 44.31C51.0504 45.72 50.9603 45.81 51.4903 46.66C52.1503 47.71 52.7903 48.87 53.4903 49.94C54.8303 52.09 56.0703 54.35 57.4203 56.51L65.3404 69.68L70.7104 69.53C70.7476 69.1906 70.7134 68.8471 70.6101 68.5216C70.5068 68.1961 70.3366 67.8958 70.1104 67.64L64.1104 57.03C62.9504 55.03 61.8204 53.03 60.6504 50.96C60.2804 50.32 57.2904 45.17 57.2604 44.9C60.6604 44.36 63.2603 43.66 65.5603 41.25C67.9881 38.6312 69.4365 35.254 69.6604 31.69L74.1804 31.57C74.7104 30.18 76.0004 27.85 76.4604 26.57H69.5204C68.9404 23.08 68.2004 22.67 67.7004 21.03H74.1504L75.3004 18.58V18.57Z" fill="black"/>
<path fill-rule="evenodd" clip-rule="evenodd" d="M56.7098 47.5901C56.7098 47.5901 42.0398 32.2501 28.9498 46.8101C28.9288 46.4209 28.8651 46.0353 28.7598 45.6601C34.7598 40.0701 45.2098 35.1401 56.7098 47.5901V47.5901Z" fill="#373435"/>
<path fill-rule="evenodd" clip-rule="evenodd" d="M57.5298 57.4901C57.5298 57.4901 42.8598 42.1501 29.7798 56.7201C29.7548 56.3314 29.6911 55.9462 29.5898 55.5701C35.5898 49.9801 46.0398 45.0501 57.5298 57.4901V57.4901Z" fill="#373435"/>
<path fill-rule="evenodd" clip-rule="evenodd" d="M57.5298 68.0099C57.5298 68.0099 42.8598 52.6699 29.7798 67.2399C29.7548 66.8512 29.6911 66.466 29.5898 66.0899C35.5898 60.4999 46.0398 55.5699 57.5298 68.0099V68.0099Z" fill="#373435"/>
</svg>
